<svg width="250" height="49" viewBox="0 0 250 49" fill="none" xmlns="http://www.w3.org/2000/svg">
<g id="katman 1">
<g id="Group">
<g id="Group_2">
<path id="Vector" d="M13.95 13.7135C13.95 14.959 12.9344 16.0231 11.6415 16.0231C7.76565 16.0231 4.62548 19.1621 4.62548 23.0425V32.3235C4.62548 33.569 3.60985 34.6331 2.36498 34.6331C1.12011 34.6331 0.0565033 33.5716 0.0565033 32.3235V23.0425C0.0565033 16.6231 5.27057 11.4519 11.6415 11.4519C12.9344 11.4519 13.95 12.468 13.95 13.7135Z" fill="#ED7C00"/>
<path id="Vector_2" d="M36.0565 22.9945C36.0565 24.24 35.0409 25.2561 33.748 25.2561H17.8259C18.7962 28.0271 21.3793 30.0113 24.4715 30.0113C25.5324 30.0113 27.425 29.9179 29.6402 28.4885C30.7012 27.795 32.1326 28.4431 32.6871 29.5499C33.2416 30.7047 32.6418 31.9048 31.5782 32.5982C28.5313 34.6305 26.1775 34.5851 24.4715 34.5851C18.0552 34.5851 12.8864 29.3686 12.8864 22.9945C12.8864 16.6205 18.0552 11.4039 24.4715 11.4039C30.0561 11.4039 36.0565 15.4684 36.0565 22.9945ZM17.8259 20.6849H31.165C30.1947 17.4526 27.2411 15.9751 24.4715 15.9751C21.3793 15.9751 18.7936 17.9593 17.8259 20.6849Z" fill="#ED7C00"/>
<path id="Vector_3" d="M55.9025 33.9397C55.4866 34.3077 54.9802 34.4944 54.471 34.4944C53.7779 34.4944 53.1328 34.2171 52.717 33.6623L43.9469 23.1332L42.5154 24.104V32.1848C42.5154 33.4783 41.4545 34.4944 40.207 34.4944C38.9594 34.4944 37.9465 33.4783 37.9465 32.1848V2.26158C37.9465 1.01611 38.9621 0 40.207 0C41.4518 0 42.5154 1.01611 42.5154 2.26158V18.7007L52.9916 11.82C53.9619 11.0359 55.3907 11.1265 56.2224 12.0973C57.0061 13.0681 56.8675 14.5456 55.8998 15.3297L47.8228 20.6396L56.2224 30.7527C57.0061 31.7235 56.8675 33.1529 55.8998 33.9397H55.9025Z" fill="#ED7C00"/>
<path id="Vector_4" d="M55.6706 22.9945C55.6706 16.5752 60.8846 11.4039 67.2556 11.4039C73.6266 11.4039 78.8406 16.5752 78.8406 22.9945C78.8406 29.4139 73.6719 34.5851 67.2556 34.5851C60.8393 34.5851 55.6706 29.3686 55.6706 22.9945ZM60.2395 22.9945C60.2395 26.8269 63.377 30.014 67.2556 30.014C71.1342 30.014 74.2717 26.8269 74.2717 22.9945C74.2717 19.1621 71.1342 15.9751 67.2556 15.9751C63.377 15.9751 60.2395 19.1141 60.2395 22.9945Z" fill="#ED7C00"/>
<path id="Vector_5" d="M94.5335 13.7135C94.5335 14.959 93.5179 16.0231 92.225 16.0231C88.3491 16.0231 85.209 19.1621 85.209 23.0425V32.3235C85.209 33.569 84.1933 34.6331 82.9485 34.6331C81.7036 34.6331 80.64 33.5716 80.64 32.3235V23.0425C80.64 16.6231 85.8541 11.4519 92.225 11.4519C93.5179 11.4519 94.5335 12.468 94.5335 13.7135Z" fill="#ED7C00"/>
</g>
<g id="Group_3">
<path id="Vector_6" d="M212.956 34.5877C206.585 34.5877 201.401 29.4005 201.401 23.0265C201.401 16.6524 206.585 11.4652 212.956 11.4652C217.08 11.4652 220.921 13.6895 222.982 17.2712C223.155 17.5725 223.051 17.9566 222.75 18.1299C222.449 18.3033 222.065 18.1993 221.892 17.8979C220.058 14.7056 216.635 12.724 212.959 12.724C207.281 12.724 202.661 17.3458 202.661 23.0265C202.661 28.7071 207.281 33.3289 212.959 33.3289C216.475 33.3289 219.714 31.5607 221.622 28.5977C221.812 28.3044 222.201 28.2217 222.491 28.4084C222.785 28.5977 222.867 28.9871 222.681 29.2778C220.54 32.6008 216.907 34.5851 212.959 34.5851L212.956 34.5877Z" fill="#ED7C00"/>
<g id="Group_4">
<path id="Vector_7" d="M107.494 12.58C113.212 12.58 117.864 17.2338 117.864 22.9544C117.864 28.6751 113.212 33.3289 107.494 33.3289C101.776 33.3289 97.1245 28.6751 97.1245 22.9544C97.1245 17.2338 101.776 12.58 107.494 12.58ZM107.494 11.3212C101.072 11.3212 95.8663 16.5297 95.8663 22.9544C95.8663 29.3791 101.072 34.5877 107.494 34.5877C113.916 34.5877 119.122 29.3791 119.122 22.9544C119.122 16.5297 113.916 11.3212 107.494 11.3212Z" fill="#ED7C00"/>
<path id="Vector_8" d="M118.487 34.5931C118.141 34.5931 117.858 34.3104 117.858 33.9637V22.7198C117.858 22.3731 118.141 22.0904 118.487 22.0904C118.834 22.0904 119.116 22.3731 119.116 22.7198V33.9637C119.116 34.3104 118.834 34.5931 118.487 34.5931Z" fill="#ED7C00"/>
</g>
<g id="Group_5">
<path id="Vector_9" d="M133.38 49C126.983 49 121.777 43.8234 121.777 37.4601C121.777 37.1107 122.065 36.828 122.419 36.828C122.774 36.828 123.062 37.1107 123.062 37.4601C123.062 43.1247 127.689 47.7332 133.38 47.7332C139.072 47.7332 143.699 43.1247 143.699 37.4601C143.699 37.1107 143.987 36.828 144.342 36.828C144.696 36.828 144.984 37.1107 144.984 37.4601C144.984 43.8234 139.778 49 133.38 49Z" fill="#ED7C00"/>
<path id="Vector_10" d="M133.399 12.604C139.082 12.604 143.705 17.2285 143.705 22.9145C143.705 28.6004 139.082 33.2249 133.399 33.2249C127.716 33.2249 123.094 28.6004 123.094 22.9145C123.094 17.2285 127.716 12.604 133.399 12.604ZM133.399 11.3185C126.999 11.3185 121.809 16.5111 121.809 22.9145C121.809 29.3178 126.999 34.5104 133.399 34.5104C139.799 34.5104 144.99 29.3178 144.99 22.9145C144.99 16.5111 139.799 11.3185 133.399 11.3185Z" fill="#ED7C00"/>
<path id="Vector_11" d="M144.984 22.6824H143.699V37.6601H144.984V22.6824Z" fill="#ED7C00"/>
</g>
<g id="Group_6">
<path id="Vector_12" d="M238.36 48.9173C232.091 48.9173 226.991 43.7701 226.991 37.4414C226.991 37.0947 227.274 36.812 227.62 36.812C227.967 36.812 228.249 37.0947 228.249 37.4414C228.249 43.074 232.786 47.6585 238.36 47.6585C243.934 47.6585 248.471 43.074 248.471 37.4414C248.471 37.0947 248.754 36.812 249.1 36.812C249.447 36.812 249.729 37.0947 249.729 37.4414C249.729 43.7701 244.63 48.9173 238.36 48.9173Z" fill="#ED7C00"/>
<path id="Vector_13" d="M238.398 34.6731C232.149 34.6731 227.068 29.2939 227.068 22.6798H228.327C228.327 28.5978 232.845 33.4116 238.398 33.4116C243.95 33.4116 248.468 28.5978 248.468 22.6798H249.727C249.727 29.2912 244.643 34.6731 238.398 34.6731Z" fill="#ED7C00"/>
<path id="Vector_14" d="M249.098 38.0068C248.751 38.0068 248.468 37.7294 248.468 37.3854V11.9399C248.468 11.5959 248.751 11.3185 249.098 11.3185C249.444 11.3185 249.727 11.5959 249.727 11.9399V37.3854C249.727 37.7294 249.444 38.0068 249.098 38.0068Z" fill="#ED7C00"/>
<path id="Vector_15" d="M227.697 23.3118C227.351 23.3118 227.068 23.0398 227.068 22.7037V11.9292C227.068 11.5932 227.351 11.3212 227.697 11.3212C228.044 11.3212 228.327 11.5932 228.327 11.9292V22.7037C228.327 23.0398 228.044 23.3118 227.697 23.3118Z" fill="#ED7C00"/>
</g>
<g id="Group_7">
<path id="Vector_16" d="M159.731 34.5877C153.36 34.5877 148.175 29.4005 148.175 23.0265C148.175 16.6524 153.36 11.4652 159.731 11.4652C166.102 11.4652 171.286 16.6524 171.286 23.0265C171.286 23.3732 171.004 23.6559 170.657 23.6559C170.311 23.6559 170.028 23.3732 170.028 23.0265C170.028 17.3458 165.409 12.724 159.731 12.724C154.053 12.724 149.433 17.3458 149.433 23.0265C149.433 28.7071 154.053 33.3289 159.731 33.3289C162.164 33.3289 164.529 32.4622 166.382 30.8913C166.494 30.798 166.6 30.702 166.707 30.6033C166.963 30.3659 167.363 30.3846 167.597 30.6406C167.832 30.8967 167.816 31.294 167.56 31.5314C167.44 31.6407 167.32 31.7501 167.195 31.8541C165.113 33.617 162.463 34.5904 159.731 34.5904V34.5877Z" fill="#ED7C00"/>
<path id="Vector_17" d="M170.657 22.3944H148.804V23.6532H170.657V22.3944Z" fill="#ED7C00"/>
</g>
<g id="Group_8">
<path id="Vector_18" d="M197.271 23.6559C196.925 23.6559 196.642 23.3732 196.642 23.0265C196.642 17.3458 192.023 12.724 186.345 12.724C180.667 12.724 176.047 17.3458 176.047 23.0265C176.047 23.3732 175.765 23.6559 175.418 23.6559C175.072 23.6559 174.789 23.3732 174.789 23.0265C174.789 16.6524 179.974 11.4652 186.345 11.4652C192.716 11.4652 197.9 16.6524 197.9 23.0265C197.9 23.3732 197.618 23.6559 197.271 23.6559Z" fill="#ED7C00"/>
<path id="Vector_19" d="M175.416 34.5877C175.069 34.5877 174.786 34.305 174.786 33.9583V23.0665C174.786 22.7198 175.069 22.4371 175.416 22.4371C175.762 22.4371 176.045 22.7198 176.045 23.0665V33.9583C176.045 34.305 175.762 34.5877 175.416 34.5877Z" fill="#ED7C00"/>
<path id="Vector_20" d="M197.271 34.5877C196.925 34.5877 196.642 34.305 196.642 33.9583V22.9971C196.642 22.6504 196.925 22.3677 197.271 22.3677C197.618 22.3677 197.901 22.6504 197.901 22.9971V33.9583C197.901 34.305 197.618 34.5877 197.271 34.5877Z" fill="#ED7C00"/>
</g>
</g>
</g>
</g>
</svg>
